<?xml version="1.0" encoding="UTF-8"?>
<svg width="24px" height="24px" viewBox="0 0 24 24" version="1.1" xmlns="http://www.w3.org/2000/svg" xmlns:xlink="http://www.w3.org/1999/xlink">
    <title>06-finance/104-calculator</title>
    <defs>
        <path d="M1,0 C0.448,0 0,0.447 0,1 L0,1 L0,23 C0,23.552 0.448,24 1,24 L1,24 L23,24 C23.553,24 24,23.552 24,23 L24,23 L24,1 C24,0.447 23.553,0 23,0 L23,0 L1,0 Z M1,23 L23,23 L23,1 L1,1 L1,23 Z M7,4.5 L7,7 L4.5,7 C4.223,7 4,7.224 4,7.5 L4,7.5 C4,7.776 4.223,8 4.5,8 L4.5,8 L7,8 L7,10.5 C7,10.777 7.224,11 7.5,11 L7.5,11 C7.776,11 8,10.777 8,10.5 L8,10.5 L8,8 L10.5,8 C10.776,8 11,7.776 11,7.5 L11,7.5 C11,7.224 10.776,7 10.5,7 L10.5,7 L8,7 L8,4.5 C8,4.224 7.776,4 7.5,4 L7.5,4 C7.224,4 7,4.224 7,4.5 L7,4.5 Z M14.5,7 C14.224,7 14,7.224 14,7.5 L14,7.5 C14,7.776 14.224,8 14.5,8 L14.5,8 L19.5,8 C19.776,8 20,7.776 20,7.5 L20,7.5 C20,7.224 19.776,7 19.5,7 L19.5,7 L14.5,7 Z M14.5,15 C14.224,15 14,15.224 14,15.5 L14,15.5 C14,15.776 14.224,16 14.5,16 L14.5,16 L19.5,16 C19.776,16 20,15.776 20,15.5 L20,15.5 C20,15.224 19.776,15 19.5,15 L19.5,15 L14.5,15 Z M9.146,15.146 L7.5,16.793 L5.853,15.146 C5.658,14.951 5.342,14.951 5.147,15.146 L5.147,15.146 C4.951,15.342 4.951,15.658 5.147,15.854 L5.147,15.854 L6.793,17.5 L5.147,19.147 C4.951,19.342 4.951,19.658 5.147,19.853 L5.147,19.853 C5.342,20.049 5.658,20.049 5.853,19.853 L5.853,19.853 L7.5,18.207 L9.146,19.853 C9.342,20.049 9.658,20.049 9.854,19.853 L9.854,19.853 C10.049,19.658 10.049,19.342 9.854,19.147 L9.854,19.147 L8.207,17.5 L9.854,15.854 C10.049,15.658 10.049,15.342 9.854,15.146 L9.854,15.146 C9.755,15.049 9.628,15 9.5,15 L9.5,15 C9.372,15 9.243,15.049 9.146,15.146 L9.146,15.146 Z M14.5,18 C14.224,18 14,18.223 14,18.5 L14,18.5 C14,18.776 14.224,19 14.5,19 L14.5,19 L19.5,19 C19.776,19 20,18.776 20,18.5 L20,18.5 C20,18.223 19.776,18 19.5,18 L19.5,18 L14.5,18 Z" id="path-1"></path>
    </defs>
    <g id="Redlines" stroke="none" stroke-width="1" fill="none" fill-rule="evenodd">
        <g id="Icon-Asset-Sheet" transform="translate(-51.000000, -562.000000)">
            <g id="06-finance/104-calculator" transform="translate(51.000000, 562.000000)">
                <mask id="mask-2" fill="white">
                    <use xlink:href="#path-1"></use>
                </mask>
                <g id="Clip-2"></g>
                <g id="color/b2" mask="url(#mask-2)" fill="#056DAE">
                    <g transform="translate(-1.000000, -1.000000)" id="Color-/-B2">
                        <rect x="0" y="0" width="26" height="26"></rect>
                    </g>
                </g>
            </g>
        </g>
    </g>
</svg>