<?xml version="1.0" encoding="UTF-8"?>
<svg width="24px" height="24px" viewBox="0 0 24 24" version="1.1" xmlns="http://www.w3.org/2000/svg" xmlns:xlink="http://www.w3.org/1999/xlink">
    <title>F79762F3-65FB-4B69-9ECF-A9D30D90594E</title>
    <defs>
        <path d="M20.6861041,1 C20.6621041,1 20.6381041,1 20.6141041,1.001 L12.5161041,1.758 C11.9781041,1.807 11.4751041,2.044 11.0931041,2.426 L2.31810412,11.201 C1.03310412,12.486 0.573104118,13.385 1.45510412,14.267 L9.73210412,22.545 C10.0431041,22.855 10.3561041,23 10.6881041,23 C11.2971041,23 11.9671041,22.514 12.8001041,21.682 L21.5741041,12.907 C21.9561041,12.525 22.1921041,12.022 22.2421041,11.485 L22.9971041,3.415 C23.0001041,3.339 23.0001041,3.292 22.9991041,3.246 C22.9611041,1.991 21.9321041,1 20.6861041,1 M21.9991041,3.349 L21.2471041,11.391 C21.2191041,11.696 21.0831041,11.983 20.8671041,12.2 L12.0931041,20.974 C11.1661041,21.9 10.8021041,22 10.6881041,22 C10.6101041,22 10.4881041,21.887 10.4401041,21.838 L2.16210412,13.56 C1.96810412,13.366 1.98710412,13.307 2.02210412,13.202 C2.11910412,12.912 2.45710412,12.476 3.02610412,11.908 L11.8001041,3.133 C12.0171041,2.916 12.3041041,2.782 12.6081041,2.753 L20.6701041,2 L20.6861041,2 C21.4001041,2 21.9781041,2.56 21.9991041,3.276 C22.0001041,3.298 22.0001041,3.319 21.9991041,3.349 M17.3847041,3.8359 C16.6737041,3.8359 15.9617041,4.1069 15.4197041,4.6499 C14.3337041,5.7349 14.3337041,7.4949 15.4197041,8.5799 C15.9617041,9.1229 16.6737041,9.3939 17.3847041,9.3939 C18.0957041,9.3939 18.8077041,9.1229 19.3497041,8.5799 C20.4357041,7.4949 20.4357041,5.7349 19.3497041,4.6499 C18.8077041,4.1069 18.0957041,3.8359 17.3847041,3.8359 M13.5593041,9.3573 C13.7583041,9.1573 14.0843041,9.1563 14.2853041,9.3573 C14.4853041,9.5573 14.4853041,9.8823 14.2853041,10.0833 L14.2853041,10.0833 L13.7823041,10.5863 C14.1303041,11.0333 14.3353041,11.4883 14.3913041,11.9403 C14.4263041,12.2223 14.2253041,12.4793 13.9453041,12.5143 C13.9253041,12.5163 13.9033041,12.5183 13.8833041,12.5183 C13.6283041,12.5183 13.4053041,12.3273 13.3723041,12.0683 C13.3263041,11.6953 13.0853041,11.2893 12.6563041,10.8603 C12.0253041,10.2303 11.5703041,10.1483 11.1353041,10.5833 C10.9183041,10.7993 10.9403041,11.1973 11.0583041,11.4963 C11.1053041,11.6143 11.3843041,12.2553 11.8873041,13.4023 C12.2453041,14.1923 12.1193041,14.9523 11.5303041,15.5403 C11.1533041,15.9183 10.7553041,16.0953 10.2853041,16.0953 C10.2543041,16.0953 10.2233041,16.0953 10.1923041,16.0933 C9.62530412,16.0653 9.20130412,15.9143 8.78030412,15.5883 L8.78030412,15.5883 L8.28130412,16.0873 C8.18130412,16.1883 8.04930412,16.2383 7.91830412,16.2383 C7.78630412,16.2383 7.65530412,16.1883 7.55530412,16.0873 C7.35530412,15.8873 7.35530412,15.5613 7.55530412,15.3623 L7.55530412,15.3623 L8.05630412,14.8613 C7.66530412,14.3503 7.41730412,13.7643 7.33730412,13.1613 C7.32030412,13.0253 7.35530412,12.8913 7.43930412,12.7823 C7.52230412,12.6733 7.64330412,12.6033 7.77930412,12.5853 C7.91230412,12.5693 8.04930412,12.6033 8.15930412,12.6873 C8.26730412,12.7703 8.33730412,12.8913 8.35530412,13.0273 C8.42630412,13.5603 8.70230412,14.1023 9.11230412,14.5123 C9.51630412,14.9163 9.78130412,15.0453 10.2423041,15.0693 C10.4563041,15.0823 10.6063041,15.0123 10.8053041,14.8143 C11.0963041,14.5233 11.1383041,14.2353 10.9503041,13.8203 C10.4163041,12.6063 10.1553041,12.0043 10.1033041,11.8723 C9.79630412,11.0933 9.90830412,10.3593 10.4103041,9.8573 C11.1813041,9.0863 12.1223041,9.0833 13.0673041,9.8503 L13.0673041,9.8503 Z M17.3847041,4.8359 C17.8607041,4.8359 18.3067041,5.0209 18.6427041,5.3569 C18.9787041,5.6929 19.1637041,6.1399 19.1637041,6.6149 C19.1637041,7.0899 18.9787041,7.5369 18.6427041,7.8729 C18.3067041,8.2089 17.8607041,8.3939 17.3847041,8.3939 C16.9097041,8.3939 16.4627041,8.2089 16.1267041,7.8729 C15.7907041,7.5369 15.6057041,7.0899 15.6057041,6.6149 C15.6057041,6.1399 15.7907041,5.6929 16.1267041,5.3569 C16.4627041,5.0209 16.9097041,4.8359 17.3847041,4.8359 Z" id="path-1"></path>
    </defs>
    <g id="Symbols" stroke="none" stroke-width="1" fill="none" fill-rule="evenodd">
        <g id="15-ecommerce/196-tag-dollars">
            <rect id="view-box" x="0" y="0" width="24" height="24"></rect>
            <mask id="mask-2" fill="white">
                <use xlink:href="#path-1"></use>
            </mask>
            <use id="icon-color" fill="#056DAE" xlink:href="#path-1"></use>
        </g>
    </g>
</svg>