<?xml version="1.0" encoding="UTF-8"?>
<svg width="24px" height="16px" viewBox="0 0 24 16" version="1.1" xmlns="http://www.w3.org/2000/svg" xmlns:xlink="http://www.w3.org/1999/xlink">
    <title>ICON / 11-communication/198-laptop-dollars</title>
    <defs>
        <path d="M20.4685,0 C21.2975,0 21.9685,0.671 21.9685,1.5 L21.9685,1.5 L21.9685,12 L23.4845,12 C23.7605,12 23.9845,12.224 23.9845,12.5 L23.9845,12.5 L23.9845,13.5 C23.9845,14.881 22.8655,16 21.4845,16 L21.4845,16 L2.5005,16 C1.1195,16 0.0005,14.881 0.0005,13.5 L0.0005,13.5 L0.0005,12.5 C0.0005,12.224 0.2235,12 0.5005,12 L0.5005,12 L1.9685,12 L1.9685,1.5 C1.9685,0.671 2.6405,0 3.4685,0 L3.4685,0 Z M8.7625,13 L1.0005,13 L1.0005,13.5 C1.0005,14.328 1.6715,15 2.5005,15 L2.5005,15 L21.4845,15 C22.3125,15 22.9845,14.328 22.9845,13.5 L22.9845,13.5 L22.9845,13 L15.1755,13 L14.3225,13.854 C14.2285,13.947 14.1015,14 13.9685,14 L13.9685,14 L9.9685,14 C9.8365,14 9.7095,13.947 9.6145,13.854 L9.6145,13.854 L8.7625,13 Z M20.4685,1 L3.4685,1 C3.1925,1 2.9685,1.224 2.9685,1.5 L2.9685,1.5 L2.9685,12 L8.9705,12 C9.1035,12 9.2305,12.053 9.3245,12.146 L9.3245,12.146 L10.1765,13 L13.7615,13 L14.6155,12.146 C14.7095,12.053 14.8365,12 14.9685,12 L14.9685,12 L20.9685,12 L20.9685,1.5 C20.9685,1.224 20.7455,1 20.4685,1 L20.4685,1 Z M12.4689,9 L18.4689,9 C18.7449,9 18.9689,8.776 18.9689,8.5 C18.9689,8.224 18.7449,8 18.4689,8 L12.4689,8 C12.1929,8 11.9689,8.224 11.9689,8.5 C11.9689,8.776 12.1929,9 12.4689,9 M12.4689,6 L18.4689,6 C18.7449,6 18.9689,5.776 18.9689,5.5 C18.9689,5.224 18.7449,5 18.4689,5 L12.4689,5 C12.1929,5 11.9689,5.224 11.9689,5.5 C11.9689,5.776 12.1929,6 12.4689,6 M9.2189,8.2764 C9.2189,7.5594 8.8489,7.0254 8.1729,6.7614 C7.2669,6.3934 6.7499,6.1814 6.6599,6.1404 C6.4449,6.0434 6.2479,5.8454 6.2479,5.6384 C6.2479,5.1854 6.4919,5.0004 7.1489,5.0004 C7.6139,5.0004 7.9429,5.0924 8.1499,5.2604 C8.3639,5.4344 8.6789,5.4014 8.8529,5.1874 C9.0269,4.9724 8.9939,4.6574 8.7799,4.4844 C8.5539,4.3014 8.2799,4.1774 7.9689,4.0984 L7.9689,3.5004 C7.9689,3.2234 7.7449,3.0004 7.4689,3.0004 C7.1929,3.0004 6.9689,3.2234 6.9689,3.5004 L6.9689,4.0114 C5.9179,4.0694 5.2479,4.6224 5.2479,5.6384 C5.2479,6.3434 5.7129,6.8094 6.2479,7.0514 C6.3569,7.1004 6.8639,7.3094 7.8029,7.6904 C8.1039,7.8074 8.2189,7.9734 8.2189,8.2764 C8.2189,8.4924 8.1799,8.5934 8.0719,8.6964 C7.8149,8.9394 7.6089,9.0004 7.2089,9.0004 C6.8089,9.0004 6.3719,8.8744 6.0309,8.6014 C5.8149,8.4294 5.4999,8.4644 5.3279,8.6804 C5.1559,8.8964 5.1909,9.2114 5.4069,9.3834 C5.8729,9.7554 6.4299,9.9384 6.9689,9.9814 L6.9689,10.5004 C6.9689,10.7764 7.1929,11.0004 7.4689,11.0004 C7.7449,11.0004 7.9689,10.7764 7.9689,10.5004 L7.9689,9.8964 C8.2469,9.8114 8.4999,9.6674 8.7589,9.4234 C9.0799,9.1194 9.2189,8.7534 9.2189,8.2764" id="path-1"></path>
    </defs>
    <g id="Redlines" stroke="none" stroke-width="1" fill="none" fill-rule="evenodd">
        <g id="Icon-Asset-Sheet" transform="translate(-51.000000, -409.000000)">
            <g id="ICON-/-11-communication/198-laptop-dollars" transform="translate(51.000000, 409.000000)">
                <mask id="mask-2" fill="white">
                    <use xlink:href="#path-1"></use>
                </mask>
                <use id="Mask" fill="#046EAE" xlink:href="#path-1"></use>
                <g id="color/b2" mask="url(#mask-2)" fill="#056DAE">
                    <g transform="translate(-1.000000, -5.000000)" id="Color-/-B2">
                        <rect x="0" y="0" width="26" height="26"></rect>
                    </g>
                </g>
            </g>
        </g>
    </g>
</svg>