<?xml version="1.0" encoding="UTF-8"?>
<svg width="18px" height="24px" viewBox="0 0 18 24" version="1.1" xmlns="http://www.w3.org/2000/svg" xmlns:xlink="http://www.w3.org/1999/xlink">
    <title>14-document/207-document-graph</title>
    <defs>
        <path d="M17,18.8998 L17,19.0008 L9.5,19.0008 C8.7,19.0008 8,19.6998 8,20.5008 L8,23.0008 L1.5,23.0008 C1.2,23.0008 1,22.7998 1,22.5008 L1,1.4998 C1,1.1998 1.2,0.9998 1.5,0.9998 L16.5,0.9998 C16.8,0.9998 17,1.1998 17,1.4998 L17,18.8998 Z M9,22.7998 L9,20.5008 C9,20.1998 9.2,20.0008 9.5,20.0008 L15.2,20.0008 L9,22.7998 Z M16.5,-0.0002 L1.5,-0.0002 C0.7,-0.0002 0,0.6998 0,1.4998 L0,22.5008 C0,23.2998 0.7,24.0008 1.5,24.0008 L8.4,24.0008 C8.6,24.0008 8.8,24.0008 9,23.8998 L17.1,20.2998 C17.7,20.0008 18,19.5008 18,18.8998 L18,1.4998 C18,0.6998 17.3,-0.0002 16.5,-0.0002 L16.5,-0.0002 Z M13.5,12.4999 C13.8,12.4999 14,12.2999 14,11.9999 L14,6.9999 C14,6.6999 13.8,6.4999 13.5,6.4999 C13.2,6.4999 13,6.6999 13,6.9999 L13,11.9999 C13,12.2999 13.2,12.4999 13.5,12.4999 M10.5,12.4999 C10.8,12.4999 11,12.2999 11,11.9999 L11,8.9999 C11,8.6999 10.8,8.4999 10.5,8.4999 C10.2,8.4999 10,8.6999 10,8.9999 L10,11.9999 C10,12.2999 10.2,12.4999 10.5,12.4999 M7.5,12.4999 C7.8,12.4999 8,12.2999 8,11.9999 L8,10.4999 C8,10.1999 7.8,9.9999 7.5,9.9999 C7.2,9.9999 7,10.1999 7,10.4999 L7,11.9999 C7,12.2999 7.2,12.4999 7.5,12.4999 M14.0996,14.0004 L5.4996,14.0004 C5.2006,14.0004 4.9996,13.8004 4.9996,13.5004 L4.9996,5.5004 C4.9996,5.2004 4.7996,5.0004 4.4996,5.0004 C4.2006,5.0004 3.9996,5.2004 3.9996,5.5004 L3.9996,13.5004 C3.9996,14.3004 4.7006,15.0004 5.4996,15.0004 L14.0996,15.0004 C14.4006,15.0004 14.5996,14.8004 14.5996,14.5004 C14.5996,14.1994 14.4006,14.0004 14.0996,14.0004" id="path-1"></path>
    </defs>
    <g id="Redlines" stroke="none" stroke-width="1" fill="none" fill-rule="evenodd">
        <g id="Icon-Asset-Sheet" transform="translate(-54.000000, -640.000000)">
            <g id="14-document/207-document-graph" transform="translate(54.000000, 640.000000)">
                <mask id="mask-2" fill="white">
                    <use xlink:href="#path-1"></use>
                </mask>
                <use id="Mask" fill="#002A54" xlink:href="#path-1"></use>
                <g id="color/b2" mask="url(#mask-2)" fill="#056DAE">
                    <g transform="translate(-4.000000, -1.000000)" id="Color-/-B2">
                        <rect x="0" y="0" width="26" height="26"></rect>
                    </g>
                </g>
            </g>
        </g>
    </g>
</svg>