<?xml version="1.0" encoding="UTF-8"?>
<svg width="24px" height="23px" viewBox="0 0 24 23" version="1.1" xmlns="http://www.w3.org/2000/svg" xmlns:xlink="http://www.w3.org/1999/xlink">
    <title>01-direction/037-home</title>
    <defs>
        <path d="M20.0002224,6.49975 L20.0002224,22.00075 L15.0002224,22.00075 L15.0002224,15.50075 C15.0002224,15.22475 14.7762224,15.00075 14.5002224,15.00075 L9.50022243,15.00075 C9.22422243,15.00075 9.00022243,15.22475 9.00022243,15.50075 L9.00022243,22.00075 L4.00022243,22.00075 L4.00022243,6.49975 C4.00022243,6.48875 3.99422243,6.47875 3.99422243,6.46775 L12.0002224,1.58575 L20.0072224,6.46775 C20.0062224,6.47875 20.0002224,6.48875 20.0002224,6.49975 M23.2612224,7.28175 L12.2602224,0.57275 C12.1012224,0.47575 11.8992224,0.47575 11.7402224,0.57275 L0.740222426,7.28175 C0.504222426,7.42475 0.429222426,7.73275 0.573222426,7.96875 C0.717222426,8.20475 1.02422243,8.27875 1.26022243,8.13475 L3.00022243,7.07475 L3.00022243,22.50075 C3.00022243,22.77675 3.22422243,23.00075 3.50022243,23.00075 L9.50022243,23.00075 C9.77622243,23.00075 10.0002224,22.77675 10.0002224,22.50075 L10.0002224,16.00075 L14.0002224,16.00075 L14.0002224,22.50075 C14.0002224,22.77675 14.2242224,23.00075 14.5002224,23.00075 L20.5002224,23.00075 C20.7762224,23.00075 21.0002224,22.77675 21.0002224,22.50075 L21.0002224,7.07475 L22.7392224,8.13475 C22.9762224,8.27875 23.2832224,8.20475 23.4272224,7.96875 C23.5702224,7.73275 23.4962224,7.42475 23.2612224,7.28175" id="path-1"></path>
    </defs>
    <g id="Redlines" stroke="none" stroke-width="1" fill="none" fill-rule="evenodd">
        <g id="Icon-Asset-Sheet" transform="translate(-51.000000, -601.000000)">
            <g id="01-direction/037-home" transform="translate(51.000000, 601.000000)">
                <mask id="mask-2" fill="white">
                    <use xlink:href="#path-1"></use>
                </mask>
                <use id="Mask" fill="#046EAE" xlink:href="#path-1"></use>
                <g id="color/b2" mask="url(#mask-2)" fill="#056DAE">
                    <g transform="translate(-1.000000, -1.000000)" id="Color-/-B2">
                        <rect x="0" y="0" width="26" height="26"></rect>
                    </g>
                </g>
            </g>
        </g>
    </g>
</svg>