<?xml version="1.0" encoding="UTF-8"?>
<svg width="20px" height="25px" viewBox="0 0 20 25" version="1.1" xmlns="http://www.w3.org/2000/svg" xmlns:xlink="http://www.w3.org/1999/xlink">
    <title>11-communication/019-idea</title>
    <defs>
        <path d="M9.9996,-0.000199999999 C4.0196,-0.000199999999 -0.000400000001,4.3598 -0.000400000001,9.9998 C-0.000400000001,13.3538 1.9646,16.4408 4.9996,18.1598 L4.9996,21.5258 C4.9996,21.8008 5.2236,22.0258 5.4996,22.0258 L5.9996,22.0258 L5.9996,23.5258 C5.9996,23.8008 6.2236,24.0258 6.4996,24.0258 L13.4996,24.0258 C13.7766,24.0258 13.9996,23.8008 13.9996,23.5258 L13.9996,22.0258 L14.4996,22.0258 C14.7766,22.0258 14.9996,21.8008 14.9996,21.5258 L14.9996,18.1598 C18.0356,16.4408 19.9996,13.3538 19.9996,9.9998 C19.9996,4.3598 15.9806,-0.000199999999 9.9996,-0.000199999999 L9.9996,-0.000199999999 Z M14.2656,17.4228 C14.1026,17.5098 13.9996,17.6798 13.9996,17.8638 L13.9996,19.0258 L5.9996,19.0258 L5.9996,17.8638 C5.9996,17.6798 5.8976,17.5098 5.7336,17.4228 C2.8626,15.9018 0.9996,13.0648 0.9996,9.9998 C0.9996,4.8948 4.5906,0.9998 9.9996,0.9998 C15.4096,0.9998 18.9996,4.8948 18.9996,9.9998 C18.9996,13.0648 17.1376,15.9018 14.2656,17.4228 L14.2656,17.4228 Z M5.9996,21.0258 L13.9996,21.0258 L13.9996,20.0258 L5.9996,20.0258 L5.9996,21.0258 Z M12.9996,22.0258 L12.9996,23.0258 L6.9996,23.0258 L6.9996,22.0258 L12.9996,22.0258 Z M14.9378,8.757 C15.0708,8.999 14.9848,9.303 14.7428,9.437 L10.2428,11.937 C10.0918,12.021 9.9078,12.021 9.7568,11.937 L5.2568,9.437 C5.0158,9.303 4.9288,8.999 5.0628,8.757 C5.1968,8.516 5.5018,8.429 5.7428,8.563 L9.9998,10.928 L14.2568,8.563 C14.4988,8.429 14.8028,8.516 14.9378,8.757 Z" id="path-1"></path>
    </defs>
    <g id="Redlines" stroke="none" stroke-width="1" fill="none" fill-rule="evenodd">
        <g id="Icon-Asset-Sheet" transform="translate(-53.000000, -679.000000)">
            <g id="11-communication/019-idea" transform="translate(53.000000, 679.000000)">
                <mask id="mask-2" fill="white">
                    <use xlink:href="#path-1"></use>
                </mask>
                <use id="icon" fill="#056DAE" xlink:href="#path-1"></use>
                <g id="color/b2" mask="url(#mask-2)" fill="#056DAE">
                    <g transform="translate(-3.000000, -1.000000)" id="Color-/-B2">
                        <rect x="0" y="0" width="26" height="26"></rect>
                    </g>
                </g>
            </g>
        </g>
    </g>
</svg>