<?xml version="1.0" encoding="UTF-8"?>
<svg width="24px" height="24px" viewBox="0 0 24 24" version="1.1" xmlns="http://www.w3.org/2000/svg" xmlns:xlink="http://www.w3.org/1999/xlink">
    <title>09-data/226-line-graph-check</title>
    <defs>
        <path d="M16.5,23 C12.91,23 10,20.09 10,16.5 C10,12.91 12.91,10 16.5,10 C20.09,10 23,12.91 23,16.5 C23,20.09 20.09,23 16.5,23 M16.5,9 C12.357,9 9,12.358 9,16.5 C9,18.191 9.566,19.746 10.51,21 L1.743,21 C1.333,21 1,20.674 1,20.283 L1,1 C1,0.724 0.776,0.5 0.5,0.5 C0.224,0.5 0,0.724 0,1 L0,20.283 C0,21.23 0.785,22 1.743,22 L11.413,22 C12.751,23.237 14.534,24 16.5,24 C20.643,24 24,20.643 24,16.5 C24,12.358 20.643,9 16.5,9 M19.0146,14.2822 L15.5726,17.8732 C15.3686,18.0762 15.0526,18.0762 14.8576,17.8812 L13.8536,16.8752 C13.6586,16.6792 13.3416,16.6792 13.1466,16.8752 C12.9516,17.0712 12.9516,17.3872 13.1466,17.5832 L14.1506,18.5892 C14.7366,19.1752 15.6866,19.1752 16.2716,18.5892 L16.2936,18.5662 L19.7366,14.9752 C19.9266,14.7752 19.9206,14.4592 19.7216,14.2672 C19.5226,14.0762 19.2046,14.0832 19.0146,14.2822 M3.8003,16.458 C4.0523,16.568 4.3463,16.452 4.4563,16.198 L7.9973,8.002 L13.9683,8.002 L17.4503,0.72 C17.5703,0.47 17.4663,0.17 17.2173,0.05 C16.9693,-0.07 16.6713,0.035 16.5513,0.284 L13.3423,6.999 L7.3423,6.999 L3.5413,15.798 C3.4313,16.053 3.5473,16.348 3.8003,16.458" id="path-1"></path>
    </defs>
    <g id="Redlines" stroke="none" stroke-width="1" fill="none" fill-rule="evenodd">
        <g id="Icon-Asset-Sheet" transform="translate(-51.000000, -718.000000)">
            <g id="09-data/226-line-graph-check" transform="translate(51.000000, 718.000000)">
                <mask id="mask-2" fill="white">
                    <use xlink:href="#path-1"></use>
                </mask>
                <use id="Mask" fill="#046EAE" xlink:href="#path-1"></use>
                <g id="color/b2" mask="url(#mask-2)" fill="#056DAE">
                    <g transform="translate(-1.000000, -1.000000)" id="Color-/-B2">
                        <rect x="0" y="0" width="26" height="26"></rect>
                    </g>
                </g>
            </g>
        </g>
    </g>
</svg>