<?xml version="1.0" encoding="utf-8"?>
<!-- Generator: Adobe Illustrator 16.0.0, SVG Export Plug-In . SVG Version: 6.00 Build 0)  -->
<!DOCTYPE svg PUBLIC "-//W3C//DTD SVG 1.1//EN" "http://www.w3.org/Graphics/SVG/1.1/DTD/svg11.dtd">
<svg version="1.1" id="Layer_1" xmlns="http://www.w3.org/2000/svg" xmlns:xlink="http://www.w3.org/1999/xlink" x="0px" y="0px"
	 width="26px" height="26px" viewBox="0 0 26 26" enable-background="new 0 0 26 26" xml:space="preserve">
<title>01-direction/050-location</title>
<g id="Redlines">
	<g id="Header-_x2F_-desktop-_x2F_-Partners-_x2F_-F5-ATT-Access" transform="translate(-1352.000000, -27.000000)">
		<g id="nav-header-_x2F_-pre-login-_x2F_-default-1440">
			<g id="nav-header-_x2F_-pre-login-_x2F_-default">
				<g id="header-_x2F_-components-_x2F_-Desktop-_x2F_-ATM" transform="translate(1324.000000, 27.000000)">
					<g id="_x30_1-direction_x2F_050-location" transform="translate(28.000000, 0.000000)">
						<rect id="Background" fill="none" width="26" height="26"/>
						<path id="Combined-Shape" fill="#056DAE" d="M13,1c4.875,0,9,3.922,9,8.671c0,3.166-2.874,8.181-8.614,15.147
							c-0.2,0.242-0.572,0.242-0.771,0C6.874,17.852,4,12.837,4,9.671C4,4.922,8.125,1,13,1z M13,2C8.667,2,5,5.485,5,9.671
							c0,2.785,2.664,7.497,8,14.04c5.336-6.543,8-11.255,8-14.04C21,5.485,17.334,2,13,2z M13,5c2.762,0,5,2.239,5,5s-2.238,5-5,5
							c-2.761,0-5-2.239-5-5S10.239,5,13,5z M13,6c-2.209,0-4,1.791-4,4s1.791,4,4,4s4-1.791,4-4S15.209,6,13,6z"/>
					</g>
				</g>
			</g>
		</g>
	</g>
</g>
</svg>
