<?xml version="1.0" encoding="UTF-8"?>
<svg width="24px" height="22px" viewBox="0 0 24 22" version="1.1" xmlns="http://www.w3.org/2000/svg" xmlns:xlink="http://www.w3.org/1999/xlink">
    <title>06-finance/138-savings</title>
    <defs>
        <path d="M19.1097854,2.31533286 C18.6874622,2.49423339 18.0918425,2.87505079 17.3370214,3.45494077 C17.1754403,3.57907521 16.9546957,3.59274217 16.7790362,3.48948731 C15.0197232,2.4553411 12.8743084,1.92611833 10.5156023,1.99975651 C4.63207125,2.18343878 1,5.73549511 1,10.5 C1,13.3396734 2.21130344,15.8398919 4.45479103,17.3625936 C4.59379171,17.4569362 4.67612465,17.614777 4.67395636,17.7827563 L4.67391304,20.5 C4.67391304,20.7761424 4.89777067,21 5.17391304,21 L8.39130435,21 C8.66744672,21 8.89130435,20.7761424 8.89130435,20.5 L8.89130435,19.4648092 C8.89130435,19.1737309 9.13896799,18.9441818 9.42920869,18.966248 C9.79552195,18.9940979 10.1720446,19.0081387 10.5586158,19.0081387 C11.211392,19.0081387 11.8437929,18.9657704 12.4539823,18.8823115 C12.7542607,18.8412408 13.0217391,19.074625 13.0217391,19.3776992 L13.0217391,20.5 C13.0217391,20.7761424 13.2455968,21 13.5217391,21 L16.7391304,21 C17.0152728,21 17.2391304,20.7761424 17.2391304,20.5 L17.2391304,17.7894737 C17.2391304,17.7207424 17.2255374,17.6548016 17.1994962,17.5937162 C17.1078132,17.3786542 17.1773982,17.12877 17.3670421,16.9920488 C18.675688,16.0485983 19.6731096,14.8200102 20.283071,13.4305915 C20.3628308,13.2489082 20.5424764,13.1315789 20.7408963,13.1315789 L22.5,13.1315789 C22.7761424,13.1315789 23,12.9077213 23,12.6315789 L23,8.31578947 C23,8.0396471 22.7761424,7.81578947 22.5,7.81578947 L20.8587796,7.81578947 C20.6573124,7.81578947 20.4755262,7.69487504 20.3976472,7.50906892 C20.1151568,6.83509412 19.7302611,6.1934495 19.2530246,5.60206964 C19.1392544,5.4610884 19.1106423,5.2695953 19.178234,5.10151575 C19.2311811,4.96985276 19.2815679,4.81649419 19.3288954,4.64182251 C19.5389061,3.8667359 19.9465907,2.99759375 20.5505551,2.02986947 C19.9296696,2.07539417 19.4479137,2.17209816 19.1097854,2.31533286 Z M18.2269584,17.5979061 C18.2350364,17.6610699 18.2391304,17.7250297 18.2391304,17.7894737 L18.2391304,20.5 C18.2391304,21.3284271 17.5675576,22 16.7391304,22 L13.5217391,22 C12.693312,22 12.0217391,21.3284271 12.0217391,20.5 L12.0217391,19.9391194 C11.5447863,19.9849926 11.0568206,20.0081387 10.5586158,20.0081387 C10.333216,20.0081387 10.1107683,20.0036464 9.89130435,19.9946918 L9.89130435,20.5 C9.89130435,21.3284271 9.21973147,22 8.39130435,22 L5.17391304,22 C4.34548592,22 3.67391304,21.3284271 3.67391304,20.5 L3.67391304,18.0363267 C1.28486916,16.3079201 0,13.5660438 0,10.5 C0,5.1831681 4.0724625,1.2004224 10.4843977,1.00024349 C12.9013437,0.924787078 15.1266136,1.44000699 16.9930255,2.46131285 C17.6883165,1.9439659 18.2605792,1.58904254 18.7197287,1.394542 C19.3623604,1.12231649 20.2850364,0.995638945 21.5017934,1.00000322 C21.9048512,1.00144891 22.1406325,1.4547481 21.9104124,1.78559005 C21.0650871,3.00038018 20.5272732,4.04274602 20.2940931,4.90334404 C20.2661569,5.00644813 20.2369308,5.10463864 20.2063564,5.19796028 C20.5928747,5.70799576 20.9205392,6.25011433 21.1841992,6.81578947 L22.5,6.81578947 C23.3284271,6.81578947 24,7.48736235 24,8.31578947 L24,12.6315789 C24,13.4600061 23.3284271,14.1315789 22.5,14.1315789 L21.0610564,14.1315789 C20.4187327,15.4638896 19.4544278,16.6498143 18.2269584,17.5979061 Z M15.2440998,5.06363401 C15.4850981,5.19844662 15.5711786,5.50310154 15.436366,5.74409982 C15.3015534,5.9850981 14.9968985,6.0711786 14.7559002,5.93636599 C13.6057584,5.29298543 12.2245817,5 10.7132755,5 C9.55782402,5 8.23059939,5.38452418 7.24410031,5.93636572 C7.00310218,6.0711786 6.69844716,5.98509844 6.56363428,5.74410031 C6.4288214,5.50310218 6.51490156,5.19844716 6.75589969,5.06363428 C7.88440711,4.43235415 9.3767218,4 10.7132755,4 C12.3830707,4 13.9288756,4.32790759 15.2440998,5.06363401 Z" id="path-1"></path>
    </defs>
    <g id="Redlines" stroke="none" stroke-width="1" fill="none" fill-rule="evenodd">
        <g id="Icon-Asset-Sheet" transform="translate(-51.000000, -524.000000)">
            <g id="06-finance/138-savings" transform="translate(51.000000, 524.000000)">
                <mask id="mask-2" fill="white">
                    <use xlink:href="#path-1"></use>
                </mask>
                <use id="Mask" fill="#056DAE" xlink:href="#path-1"></use>
                <g id="color/b2" mask="url(#mask-2)" fill="#056DAE">
                    <g transform="translate(-1.000000, -2.000000)" id="Color-/-B2">
                        <rect x="0" y="0" width="26" height="26"></rect>
                    </g>
                </g>
            </g>
        </g>
    </g>
</svg>