<?xml version="1.0" encoding="UTF-8"?>
<svg width="100%" height="100px" viewBox="0 0 1920 100" version="1.1" xmlns="http://www.w3.org/2000/svg" xmlns:xlink="http://www.w3.org/1999/xlink">
    <title>Component / Divider / Top Grey</title>
    <defs>
        <rect id="path-1" x="0" y="0" width="1920" height="100"></rect>
    </defs>
    <g id="Component-/-Divider-/-Top-Grey" stroke="none" stroke-width="1" fill="none" fill-rule="evenodd">
        <g id="Top-Divider">
            <mask id="mask-2" fill="white">
                <use xlink:href="#path-1"></use>
            </mask>
            <g id="Mask"></g>
            <g mask="url(#mask-2)" id="Group-4">
                <g transform="translate(-214.000000, 18.000000)">
                    <path d="M193.4375,2.44921875 C313.157445,-4.32820284 390.395231,1.95544546 591.062185,36.6398971 C791.729138,71.3243488 901.245679,73.7163799 1204.6269,43.0186469 C1508.00813,12.3209138 1641.15897,11.0603129 1884,21.4257812 C2115.27717,27.4058591 2188.91532,54.9788026 2269.86232,93.6499729 C2350.80933,132.321143 838.664798,94.272297 838.664798,94.272297 C838.664798,94.272297 590.155215,87.287434 93.1360492,73.3177081 C80.1903863,30.5903296 113.624203,6.96749981 193.4375,2.44921875 Z" id="Path-10" fill="#FCFCFC"></path>
                    <path d="M114.687403,33.8912213 C241.1042,29.5581157 315.086757,41.2829897 526.978547,63.4582949 C738.870337,85.6336 854.512975,87.1629314 1174.86463,67.5365119 C1495.21629,47.9100924 1629.53413,33.8912213 1885.95911,40.518324 C2130.17338,44.3416525 2214.21182,75.1831689 2299.68681,99.9073597 C2385.1618,124.631551 788.431468,100.305239 788.431468,100.305239 C788.431468,100.305239 526.020844,95.839507 1.19959706,86.9080429 C-7.41972999,54.4522322 30.4095387,36.7799584 114.687403,33.8912213 Z" id="Path-10" fill="#333333"></path>
                </g>
            </g>
        </g>
    </g>
</svg>