<?xml version="1.0" encoding="UTF-8"?>
<svg width="1920px" height="100px" viewBox="0 0 1920 100" version="1.1" xmlns="http://www.w3.org/2000/svg" xmlns:xlink="http://www.w3.org/1999/xlink">
    <title>Wave_Bottom</title>
    <defs>
        <rect id="path-1" x="4.54747351e-13" y="4.54747351e-13" width="1920" height="100"></rect>
        <linearGradient x1="99.999994%" y1="49.8613732%" x2="101.769231%" y2="50.1386268%" id="linearGradient-3">
            <stop stop-color="#BDEEFC" offset="0%"></stop>
            <stop stop-color="#7FDEF9" offset="100%"></stop>
        </linearGradient>
        <path d="M-212.154651,-33 C-155.129316,-32.3282572 -100.925504,-31.6897512 -49.5432165,-31.084482 L-49.5541398,-31.0849534 C-57.4193186,-30.5534737 -64.524185,-29.9113683 -70.8687389,-29.1586375 C-122.86099,-22.9901703 -140.651506,-7.39279217 -124.240286,17.633497 C70.0514898,36.3778323 253.705153,39.3333333 426.720703,26.5 C686.244028,7.25 954.651045,16.0678667 1209.57039,17.6546629 C1464.48974,19.2414592 1552.78442,40 1773.70959,40 C1840.09663,40 1891.52191,32.2118331 1927.98543,16.6354992 L1928.02548,16.6352392 C2009.88776,20.9757811 2054.23181,25.0506982 2037.49866,28.4632489 C1953.09266,45.676963 1868.20464,83.1322651 1627.04466,85.7941796 C1385.88468,88.4560942 1243.08932,64.6652868 926.744171,51.0007921 C610.399023,37.3362974 496.202681,38.4010632 286.960936,53.8401676 C77.7191901,69.279272 4.66190277,77.4424766 -120.17385,74.4256401 C-203.397686,72.4144158 -234.057953,36.6058691 -212.154651,-33 Z M181.277556,-28.3654768 C386.20464,-25.9514921 524.255523,-24.3252907 595.430205,-23.4868725 L238.283209,-25.3770327 C219.790123,-26.4197772 202.032278,-27.355544 185.009675,-28.1843331 Z" id="path-4"></path>
    </defs>
    <g id="Symbols" stroke="none" stroke-width="1" fill="none" fill-rule="evenodd">
        <g id="Group">
            <mask id="mask-2" fill="white">
                <use xlink:href="#path-1"></use>
            </mask>
            <g id="Mask"></g>
            <rect id="Rectangle" fill="#F9FDFF" mask="url(#mask-2)" x="-0.079535545" y="4.54747351e-13" width="1920" height="60"></rect>
            <path d="M-125.146305,37.2814588 C-118.551855,43.1103758 -51.7514299,38.3293181 75.254969,22.9382859 C265.764567,-0.148262511 378.762888,51.4040283 644.05363,53.1843116 C909.344371,54.9645949 1093.94701,14.1949105 1342.55623,37.2814588 C1508.29572,52.6724911 1740.69849,51.7042669 2039.76457,34.3767861 C2056.84348,62.4546722 2038.32915,79.9539269 1984.2216,86.8745501 C1930.11404,93.7951732 1822.87078,92.3809342 1662.4918,82.6318329 L-86.7627764,72.6492586 L-125.146305,37.2814588 Z" id="Path-6-Copy" fill="#FCFCFC" mask="url(#mask-2)" transform="translate(960.382284, 54.092156) scale(-1, -1) translate(-960.382284, -54.092156) "></path>
            <g id="Combined-Shape" mask="url(#mask-2)">
                <use fill="#FFFFFF" xlink:href="#path-4"></use>
                <use fill="url(#linearGradient-3)" xlink:href="#path-4"></use>
            </g>
        </g>
    </g>
</svg>